<?xml version="1.0" standalone="no"?>
<!DOCTYPE svg PUBLIC "-//W3C//DTD SVG 20010904//EN"
 "http://www.w3.org/TR/2001/REC-SVG-20010904/DTD/svg10.dtd">
<svg version="1.0" xmlns="http://www.w3.org/2000/svg"
 width="381.000000pt" height="381.000000pt" viewBox="0 0 381.000000 381.000000"
 preserveAspectRatio="xMidYMid meet">
<metadata>
Created by potrace 1.14, written by Peter Selinger 2001-2017
</metadata>
<g transform="translate(0.000000,381.000000) scale(0.100000,-0.100000)"
fill="#000000" stroke="none">
<path d="M1665 3654 c-351 -169 -652 -309 -1080 -503 -99 -45 -185 -85 -192
-89 -17 -11 -44 -464 -50 -852 -7 -423 8 -593 74 -795 200 -617 691 -1094
1370 -1331 l113 -39 126 43 c610 206 1098 652 1318 1206 94 235 120 405 121
781 0 268 -31 953 -45 975 -4 6 -101 53 -216 106 -521 238 -764 351 -1093 510
-107 52 -201 94 -210 94 -9 0 -115 -48 -236 -106z m466 -93 c252 -122 503
-241 659 -312 58 -26 170 -77 250 -114 80 -37 177 -80 215 -97 39 -16 73 -33
77 -37 3 -3 14 -130 24 -281 22 -337 25 -883 6 -1013 -58 -394 -248 -750 -559
-1047 -219 -209 -463 -358 -771 -472 l-135 -49 -116 42 c-64 23 -174 71 -245
106 -242 121 -390 226 -567 402 -184 184 -313 372 -407 592 -144 333 -163 607
-110 1516 l12 205 35 15 c196 82 1300 599 1371 643 8 5 20 9 26 9 6 1 112 -48
235 -108z"/>
<path d="M1580 3180 l-314 -159 -12 27 c-22 53 -49 67 -135 71 -51 2 -84 -1
-94 -9 -10 -8 -19 -8 -34 -1 -28 16 -59 14 -92 -6 -47 -28 -59 -67 -59 -195
l0 -113 -40 -17 -40 -17 0 -458 c0 -409 -2 -461 -16 -482 -39 -56 39 -336 141
-507 171 -288 442 -516 858 -724 125 -64 162 -78 180 -71 71 27 302 150 408
217 125 78 291 208 363 283 22 22 44 37 49 34 6 -3 7 -2 4 4 -3 5 13 31 37 56
24 26 40 47 38 47 -3 0 6 12 20 28 74 79 218 391 218 471 0 17 5 53 11 81 9
42 8 55 -5 75 -14 21 -16 85 -18 486 l-3 462 -42 16 -43 15 0 121 c0 100 -3
125 -19 151 -25 41 -72 60 -116 47 -19 -6 -39 -7 -46 -2 -8 5 -45 9 -84 9 -82
0 -124 -20 -144 -68 l-13 -31 -319 159 c-175 88 -320 160 -321 159 -2 0 -145
-72 -318 -159z m486 -38 l156 -79 -53 -6 c-30 -4 -95 -21 -146 -38 l-92 -32
-60 26 c-45 19 -84 27 -165 33 -59 4 -108 10 -111 14 -6 10 65 41 78 34 7 -4
9 -3 4 1 -10 11 121 77 135 69 7 -4 8 -2 4 4 -4 7 -2 12 3 12 6 0 13 0 16 0 3
0 14 9 25 20 11 11 27 20 34 20 8 0 85 -35 172 -78z m-1078 -142 c2 -36 1
-133 -3 -217 l-7 -151 -34 1 -34 2 0 60 c0 33 -3 123 -6 200 -6 126 -5 142 11
158 10 11 29 17 44 15 25 -3 26 -6 29 -68z m209 48 c21 -20 23 -30 23 -127 0
-82 -3 -102 -12 -93 -18 18 -87 15 -94 -3 -4 -8 -19 -15 -35 -15 -16 0 -32 -7
-38 -17 -7 -13 -10 22 -11 123 0 77 3 144 7 147 3 4 36 7 72 7 53 0 69 -4 88
-22z m1571 10 c7 -7 12 -36 12 -66 0 -46 3 -53 18 -50 14 3 18 16 20 66 3 57
5 62 26 62 27 0 54 -19 56 -40 2 -8 2 -101 1 -206 l-1 -191 -37 6 -38 6 -3
110 c-2 100 -11 135 -33 135 -4 0 -9 -32 -11 -72 -3 -68 -4 -71 -20 -54 -10
10 -18 16 -19 14 0 -2 -2 -12 -4 -23 -1 -11 -5 -27 -9 -35 -8 -19 0 -29 52
-64 46 -31 51 -51 25 -87 -10 -13 -23 -33 -29 -44 -11 -20 -84 -36 -84 -18 0
4 -15 9 -33 10 l-32 2 28 -15 c18 -10 27 -23 27 -39 0 -22 -3 -24 -25 -15 -39
15 -129 80 -136 99 -12 30 70 107 86 81 3 -6 11 -8 16 -4 7 4 7 10 0 18 -5 6
-6 18 -2 25 7 10 13 11 30 2 11 -7 21 -8 21 -3 0 4 -19 15 -42 23 -34 13 -43
21 -43 40 0 20 6 25 32 27 20 2 37 11 43 23 6 10 17 19 25 19 8 0 15 7 15 15
0 20 -38 19 -81 -3 l-35 -18 4 121 c4 146 10 155 106 155 35 0 67 -5 74 -12z
m-230 -265 c-5 -143 -20 -177 -73 -167 -19 3 -35 1 -39 -5 -4 -6 -16 -11 -27
-11 -10 0 -19 -7 -19 -15 0 -7 -6 -18 -14 -22 -8 -4 -16 -21 -18 -37 -1 -16
-9 -31 -17 -34 -9 -3 -11 1 -7 16 7 22 -33 62 -63 62 -14 0 -14 -2 -1 -10 17
-11 10 -13 -14 -4 -9 3 -16 13 -16 21 0 10 6 13 16 9 14 -5 15 -4 4 9 -11 13
-14 13 -30 -5 -18 -21 -37 -16 -19 6 11 14 -1 13 -33 -1 -20 -8 -25 -45 -7
-45 6 0 9 7 6 15 -7 17 9 30 18 14 4 -6 0 -18 -9 -27 -12 -13 -18 -13 -28 -4
-15 15 -31 16 -22 0 4 -6 3 -8 -3 -5 -6 4 -28 32 -49 64 -67 100 -154 213
-164 213 -21 0 -179 -157 -374 -370 -38 -41 -73 -74 -78 -72 -5 1 -7 -1 -5 -5
3 -5 -1 -14 -9 -21 -8 -7 -14 -11 -14 -9 0 2 -17 1 -38 -3 -48 -8 -112 25
-127 65 -8 24 -7 30 13 43 12 8 22 21 22 28 0 20 49 37 84 30 28 -6 28 -5 21
27 -4 17 -7 41 -8 51 -2 20 -50 40 -74 31 -8 -2 -13 4 -13 16 0 10 -10 24 -22
30 -22 10 -23 14 -20 124 l3 115 636 0 635 0 -4 -117z m-1338 -3 c21 -21 25
-46 11 -69 -13 -21 3 -47 34 -55 15 -4 27 -16 31 -31 4 -15 13 -25 25 -25 16
0 39 -27 39 -46 0 -4 -23 -4 -50 -1 -47 6 -51 4 -72 -23 -20 -27 -58 -42 -58
-22 0 4 -11 7 -25 7 -21 0 -23 -2 -10 -11 8 -6 15 -21 15 -34 0 -28 -12 -24
-107 38 -76 49 -95 82 -48 82 14 0 28 7 31 15 4 8 15 15 25 15 13 0 19 7 19
23 0 13 5 28 12 35 8 8 8 15 -1 25 -19 24 -2 50 28 44 23 -5 29 -1 38 24 13
34 35 37 63 9z m878 -233 l113 -150 -27 -28 c-15 -16 -31 -26 -36 -23 -16 10
-8 -38 12 -63 19 -24 20 -24 20 -5 0 21 95 112 117 112 12 0 27 -17 109 -128
25 -35 48 -61 50 -59 2 2 -1 18 -7 36 -13 38 -10 42 32 44 31 2 39 -6 136
-133 57 -74 128 -165 158 -202 30 -37 55 -69 55 -72 0 -4 -191 -6 -425 -6
-346 1 -425 4 -425 15 0 14 -64 30 -80 20 -12 -8 -8 20 10 60 8 17 14 53 14
82 1 28 4 46 8 40 8 -14 13 -9 23 21 6 22 5 22 -14 10 -17 -10 -23 -10 -29 -1
-6 10 -27 10 -96 1 -81 -10 -87 -12 -83 -32 5 -18 4 -19 -6 -4 -10 15 -12 15
-24 0 -12 -16 -12 -15 -6 2 4 13 2 17 -8 14 -8 -3 -19 2 -25 11 -13 17 -8 41
8 41 6 0 5 -6 -2 -15 -9 -11 -9 -15 -1 -15 7 0 25 27 40 60 16 33 33 66 38 73
20 24 93 243 96 285 1 12 4 22 8 22 3 0 20 48 39 106 l34 106 31 -38 c16 -21
81 -105 143 -187z m-286 49 c7 4 8 2 4 -5 -9 -13 -26 -5 -25 12 0 9 2 8 6 -1
2 -6 10 -9 15 -6z m-72 -29 c0 -2 -15 -16 -32 -33 l-33 -29 29 33 c28 30 36
37 36 29z m479 -38 c-22 -13 -31 -11 -17 5 7 8 17 12 22 9 4 -3 2 -9 -5 -14z
m-482 -4 c0 -8 -4 -12 -9 -9 -5 3 -6 10 -3 15 9 13 12 11 12 -6z m703 -5 c-6
-11 -12 -20 -14 -20 -3 0 -1 23 3 38 1 1 6 2 11 2 7 0 7 -6 0 -20z m-1467 -88
l32 -8 0 -105 0 -104 -38 -48 -37 -49 1 179 c1 98 3 170 6 161 2 -10 19 -22
36 -26z m1946 -109 c-1 -187 -4 -198 -46 -140 -29 42 -31 51 -34 148 l-4 103
35 18 c19 9 38 17 43 18 4 0 7 -66 6 -147z m-447 108 c-1 -7 2 -10 7 -7 5 4
12 2 16 -4 3 -5 22 -10 41 -10 l34 0 0 -62 -1 -63 -22 28 c-13 15 -27 27 -33
27 -19 0 -51 44 -58 78 -4 25 -2 32 7 29 6 -2 11 -10 9 -16z m-1383 -54 c-1
-23 -3 -34 -6 -24 -2 9 -11 17 -19 17 -9 0 -14 11 -14 35 0 33 2 35 20 25 15
-8 20 -20 19 -53z m1684 -1 c3 -8 -1 -17 -9 -20 -23 -9 -24 -8 -24 14 0 23 25
27 33 6z m24 -8 c-3 -8 -6 -5 -6 6 -1 11 2 17 5 13 3 -3 4 -12 1 -19z m-127
-20 c0 -36 -9 -33 -16 6 -2 14 0 26 6 26 5 0 10 -14 10 -32z m-1147 -3 c-3 -9
-8 -14 -10 -11 -3 3 -2 9 2 15 9 16 15 13 8 -4z m-81 -62 c9 -10 27 -41 42
-70 30 -61 46 -74 46 -39 0 14 3 26 8 25 4 0 32 -34 62 -76 30 -42 90 -116
133 -164 l78 -89 -146 0 -146 0 -22 37 c-23 39 -31 67 -17 58 5 -3 12 0 16 6
5 8 3 9 -6 4 -10 -6 -12 -3 -8 13 4 12 1 25 -4 29 -6 3 -8 2 -5 -3 3 -6 2 -16
-3 -24 -8 -13 -12 -13 -27 2 -9 10 -13 21 -9 25 4 4 12 1 17 -7 9 -13 10 -13
6 0 -2 8 -11 15 -21 15 -9 0 -24 12 -34 26 -9 14 -34 51 -54 82 -21 31 -42 58
-48 62 -5 3 -10 10 -10 14 0 8 119 91 131 91 3 0 13 -8 21 -17z m88 -14 c0 -6
-4 -7 -10 -4 -5 3 -10 11 -10 16 0 6 5 7 10 4 6 -3 10 -11 10 -16z m43 -4 c4
-8 3 -16 -1 -19 -4 -3 -9 4 -9 15 -2 23 3 25 10 4z m-341 -50 c110 -143 181
-236 223 -288 l46 -58 -174 1 c-95 1 -180 6 -188 11 -9 7 6 8 45 3 l59 -7 -19
21 c-10 11 -32 24 -47 28 -18 4 -24 9 -17 14 8 5 2 10 -16 14 -22 6 -25 9 -13
17 10 7 -1 8 -36 4 -54 -8 -88 -22 -81 -33 3 -5 1 -14 -3 -21 -5 -7 -8 0 -9
21 0 18 3 37 8 44 6 6 16 29 24 51 l14 40 -26 -1 c-17 0 -26 4 -24 13 1 7 -2
10 -8 6 -6 -4 -3 -16 8 -33 12 -19 13 -24 3 -17 -11 6 -13 4 -7 -10 5 -15 4
-16 -9 -5 -9 7 -15 9 -13 4 4 -12 -52 -85 -61 -80 -4 3 -13 1 -20 -3 -9 -6
-10 -11 -2 -15 6 -4 11 -2 11 5 0 8 4 8 13 1 9 -8 19 -4 36 14 13 14 26 22 29
20 2 -3 -3 -12 -11 -20 -8 -9 -21 -32 -27 -51 -11 -34 -13 -35 -61 -35 -27 0
-49 5 -49 10 0 6 5 10 10 10 6 0 10 5 10 10 0 6 18 37 39 68 21 31 58 88 82
125 29 47 45 64 51 55 5 -9 8 -3 8 15 0 16 4 26 10 22 6 -3 10 3 10 13 0 24
16 38 66 57 58 21 74 15 116 -40z m1606 -55 c31 -50 85 -134 120 -188 l63 -97
-78 -3 c-70 -3 -80 -1 -95 19 -10 11 -15 26 -11 33 3 6 3 8 -2 4 -4 -4 -18 9
-31 28 -13 19 -58 84 -99 143 -41 60 -75 114 -75 120 0 18 39 30 98 30 l53 1
57 -90z m-1244 54 c3 -8 2 -12 -4 -9 -6 3 -10 10 -10 16 0 14 7 11 14 -7z m47
-27 c-10 -9 -11 -8 -5 6 3 10 9 15 12 12 3 -3 0 -11 -7 -18z m9 -38 c0 -6 -4
-7 -10 -4 -5 3 -10 11 -10 16 0 6 5 7 10 4 6 -3 10 -11 10 -16z m67 -94 c0 -8
-4 -12 -9 -9 -5 3 -6 10 -3 15 9 13 12 11 12 -6z m93 -73 c0 -2 -5 0 -10 3 -6
4 -17 2 -25 -5 -11 -9 -13 -7 -10 7 2 10 4 21 4 25 1 7 41 -22 41 -30z m-10
-16 c0 -2 -7 -7 -16 -10 -8 -3 -12 -2 -9 4 6 10 25 14 25 6z m-815 -56 c-5
-23 -3 -30 9 -30 9 0 16 6 16 13 0 8 3 8 9 -2 6 -10 22 -12 56 -8 29 3 42 1
34 -4 -20 -12 -169 -11 -169 1 0 6 5 10 10 10 6 0 16 11 22 25 15 34 21 32 13
-5z m846 -17 c13 -16 12 -17 -3 -4 -10 7 -18 15 -18 17 0 8 8 3 21 -13z m64
-13 c3 -5 1 -10 -4 -10 -6 0 -11 5 -11 10 0 6 2 10 4 10 3 0 8 -4 11 -10z
m1139 -69 c17 -19 16 -19 -20 -11 -21 5 -519 7 -1106 4 -587 -2 -1074 -4
-1083 -4 -8 0 -20 -10 -25 -22 l-9 -23 0 22 c-1 12 9 29 21 37 20 14 142 16
1114 16 1061 0 1091 -1 1108 -19z m-1584 -103 c23 -25 27 -47 6 -29 -10 8 -58
11 -155 9 -78 -2 -141 0 -141 4 0 4 10 14 22 22 17 12 49 16 135 16 103 0 114
-2 133 -22z m-384 -22 c28 -28 34 -41 34 -78 0 -50 -18 -82 -60 -103 -82 -42
-170 15 -170 109 0 27 8 44 35 71 30 30 42 35 81 35 39 0 51 -5 80 -34z m1854
19 c79 -41 77 -153 -2 -200 -85 -50 -198 38 -168 131 24 72 102 104 170 69z
m-1220 -42 c0 -15 -10 -18 -49 -20 -27 -1 -59 -7 -70 -13 -17 -9 -21 -8 -21 4
0 22 49 45 98 46 33 0 42 -4 42 -17z m360 -4 c0 -14 -12 -25 -40 -37 -29 -13
-40 -23 -40 -39 0 -27 -27 -43 -74 -43 -50 0 -86 19 -86 45 0 16 -11 27 -40
40 -26 12 -40 25 -40 37 0 17 11 18 160 18 155 0 160 -1 160 -21z m149 0 c42
-26 36 -32 -21 -20 -24 6 -54 8 -66 4 -18 -4 -22 -1 -22 16 0 18 6 21 38 21
20 0 52 -9 71 -21z m-467 -59 c26 -7 38 -17 40 -32 12 -82 220 -89 238 -8 10
42 101 62 181 40 43 -12 104 -68 123 -113 7 -18 15 -75 18 -127 3 -56 15 -125
28 -169 19 -62 21 -79 11 -111 -16 -55 -62 -90 -115 -90 -55 0 -84 22 -143
111 -25 38 -53 74 -63 79 -10 6 -84 10 -163 10 l-145 0 -27 -31 c-14 -18 -34
-48 -45 -69 -29 -56 -84 -100 -126 -100 -48 0 -90 24 -110 62 -20 39 -20 81 1
138 10 26 20 95 24 165 8 133 20 168 74 209 60 46 122 57 199 36z m-656 -245
c2 -11 -2 -25 -7 -31 -7 -8 -6 -14 3 -17 8 -3 9 -6 2 -6 -7 -1 -19 11 -29 25
-9 15 -12 24 -7 20 6 -3 14 -1 18 5 4 7 3 9 -3 6 -6 -4 -19 0 -29 9 -18 13
-17 14 15 11 25 -2 35 -8 37 -22z m110 5 c13 0 15 -17 13 -100 -2 -55 -6 -100
-9 -100 -8 0 -33 28 -45 50 -8 13 -6 13 7 2 13 -11 18 -11 24 0 4 7 3 10 -1 5
-5 -4 -17 0 -27 10 -13 12 -18 31 -18 75 0 37 4 57 10 53 6 -3 13 2 17 11 4
11 8 13 11 6 2 -7 10 -12 18 -12z m62 -133 c-2 -106 -5 -125 -15 -111 -16 21
-17 44 -3 44 7 0 7 7 -1 21 -6 12 -7 19 -2 16 4 -3 7 38 5 91 -2 70 0 93 8 82
6 -9 9 -66 8 -143z m102 38 c0 -74 -4 -115 -11 -115 -5 0 -7 -4 -4 -10 3 -5
-1 -10 -9 -10 -14 0 -14 -3 -4 -20 12 -18 13 -19 20 -2 4 11 7 4 6 -19 -1 -26
-6 -35 -15 -32 -7 3 -13 13 -14 22 0 11 -2 12 -6 3 -3 -7 5 -25 18 -40 19 -21
19 -23 3 -9 -11 9 -23 14 -26 11 -8 -8 -10 269 -2 289 3 9 10 14 15 11 5 -3 9
1 9 10 0 8 -6 17 -12 19 -7 3 -3 6 10 6 22 1 22 -1 22 -114z m72 37 c-6 -2 -8
-11 -6 -20 3 -9 -2 -35 -11 -57 l-15 -40 5 83 c5 90 27 139 33 74 2 -20 -1
-38 -6 -40z m1173 38 c0 -22 -3 -40 -7 -40 -5 0 -8 18 -8 40 0 22 3 40 8 40 4
0 7 -18 7 -40z m189 -15 c-20 -30 -38 -55 -40 -55 -2 0 -4 25 -4 55 l0 55 40
0 40 0 -36 -55z m-367 3 c-3 -8 -6 -5 -6 6 -1 11 2 17 5 13 3 -3 4 -12 1 -19z
m270 0 c-3 -8 -6 -5 -6 6 -1 11 2 17 5 13 3 -3 4 -12 1 -19z m-270 -65 c-3
-10 -5 -2 -5 17 0 19 2 27 5 18 2 -10 2 -26 0 -35z m20 0 c-3 -10 -5 -4 -5 12
0 17 2 24 5 18 2 -7 2 -21 0 -30z m91 -28 c-2 -46 -6 -64 -15 -61 -6 3 -14 -5
-16 -17 -2 -12 -4 -4 -5 18 0 22 4 51 9 65 8 23 8 22 6 -7 -2 -18 0 -30 5 -27
4 3 8 25 8 50 0 24 3 44 6 44 3 0 4 -29 2 -65z m134 -25 l-15 -25 21 19 c26
22 29 11 5 -16 -23 -26 -29 -23 -30 18 0 24 2 32 8 23 6 -10 9 -5 10 16 0 26
2 27 9 10 5 -13 3 -29 -8 -45z m-262 22 c0 -15 -2 -15 -10 -2 -13 20 -13 33 0
25 6 -3 10 -14 10 -23z m191 -33 c-1 -29 4 -58 11 -67 8 -10 9 -13 1 -9 -6 4
-13 1 -16 -5 -2 -7 -5 23 -6 67 -1 43 1 76 5 72 4 -4 6 -30 5 -58z m-159 9
c-7 -7 -12 -8 -12 -2 0 14 12 26 19 19 2 -3 -1 -11 -7 -17z m-17 -38 c3 -5 1
-10 -4 -10 -6 0 -11 5 -11 10 0 6 2 10 4 10 3 0 8 -4 11 -10z m22 -72 l0 -63
-11 40 c-7 22 -8 43 -4 46 5 3 8 10 7 15 -2 12 0 24 4 24 2 0 4 -28 4 -62z
m-369 -43 c-3 -3 -9 2 -12 12 -6 14 -5 15 5 6 7 -7 10 -15 7 -18z m-97 -24 c6
10 9 7 9 -13 0 -15 -4 -30 -10 -33 -6 -4 -8 -44 -5 -98 3 -79 3 -84 -5 -32 -8
62 -11 229 -3 186 4 -19 7 -21 14 -10z m97 -26 c-3 -3 -9 2 -12 12 -6 14 -5
15 5 6 7 -7 10 -15 7 -18z m372 9 c0 -8 -4 -12 -10 -9 -5 3 -10 10 -10 16 0 5
5 9 10 9 6 0 10 -7 10 -16z m-766 -86 c-3 -46 -6 -93 -7 -106 0 -12 -6 -21
-11 -19 -7 2 -11 41 -12 96 -1 74 2 93 15 101 9 5 17 10 18 10 2 0 0 -37 -3
-82z m-236 47 c-3 -3 -9 2 -12 12 -6 14 -5 15 5 6 7 -7 10 -15 7 -18z m616
-86 c-1 -59 -6 -94 -14 -102 -10 -10 -11 0 -6 51 3 38 2 62 -4 62 -6 0 -10 11
-10 25 0 14 5 25 11 25 7 0 9 10 4 28 -5 22 -4 25 7 14 9 -9 13 -41 12 -103z
m104 88 c8 -10 6 -13 -7 -13 -11 0 -17 6 -14 13 3 7 6 13 8 13 1 0 7 -6 13
-13z m212 3 c0 -5 -5 -10 -11 -10 -5 0 -7 5 -4 10 3 6 8 10 11 10 2 0 4 -4 4
-10z m-4 -25 c19 -15 19 -15 0 -8 -16 5 -18 3 -13 -13 7 -19 7 -19 -8 0 -27
36 -15 48 21 21z m-761 -4 c3 -6 -4 -15 -15 -21 -16 -8 -20 -8 -18 2 2 7 8 16
13 20 13 10 13 10 20 -1z m-117 -16 c-2 -5 -8 -10 -15 -11 -6 -1 -9 4 -6 12 6
16 27 15 21 -1z m383 -31 c6 -11 9 -36 6 -55 -4 -32 -4 -31 -5 9 -1 23 -6 42
-12 42 -5 0 -10 12 -9 28 0 15 3 20 6 12 2 -8 9 -24 14 -36z m289 25 c0 -5 -4
-9 -10 -9 -5 0 -10 7 -10 16 0 8 5 12 10 9 6 -3 10 -10 10 -16z m70 11 c0 -5
-2 -10 -4 -10 -3 0 -8 5 -11 10 -3 6 -1 10 4 10 6 0 11 -4 11 -10z m-103 -62
c-2 -13 -4 -5 -4 17 -1 22 1 32 4 23 2 -10 2 -28 0 -40z m-517 38 c0 -3 -4 -8
-10 -11 -5 -3 -10 -1 -10 4 0 6 5 11 10 11 6 0 10 -2 10 -4z m-12 -26 c15 0
15 -2 2 -10 -22 -14 -26 -12 -27 13 0 12 1 16 4 10 3 -7 12 -13 21 -13z m635
5 c-3 -9 -8 -14 -10 -11 -3 3 -2 9 2 15 9 16 15 13 8 -4z m-76 -37 c-3 -8 -6
-5 -6 6 -1 11 2 17 5 13 3 -3 4 -12 1 -19z m100 7 c0 -8 -4 -12 -9 -9 -5 3 -6
10 -3 15 9 13 12 11 12 -6z m-651 -14 c0 -15 -3 -17 -18 -7 -17 10 -17 11 0
18 9 3 17 7 17 7 1 1 1 -7 1 -18z m151 -73 c-3 -8 -6 -5 -6 6 -1 11 2 17 5 13
3 -3 4 -12 1 -19z m227 -64 c3 -8 2 -12 -4 -9 -6 3 -10 10 -10 16 0 14 7 11
14 -7z"/>
<path d="M2585 2550 c3 -5 10 -10 16 -10 5 0 9 5 9 10 0 6 -7 10 -16 10 -8 0
-12 -4 -9 -10z"/>
<path d="M1060 2560 c0 -5 5 -10 10 -10 6 0 10 5 10 10 0 6 -4 10 -10 10 -5 0
-10 -4 -10 -10z"/>
<path d="M1900 2140 c0 -5 5 -10 10 -10 6 0 10 5 10 10 0 6 -4 10 -10 10 -5 0
-10 -4 -10 -10z"/>
<path d="M2097 1913 c-13 -13 -6 -18 26 -19 17 -1 24 1 15 3 -10 2 -18 9 -18
14 0 10 -14 12 -23 2z"/>
<path d="M1480 1926 c0 -2 7 -9 15 -16 13 -11 14 -10 9 4 -5 14 -24 23 -24 12z"/>
<path d="M940 2076 c0 -2 7 -7 16 -10 8 -3 12 -2 9 4 -6 10 -25 14 -25 6z"/>
<path d="M925 2051 c-3 -5 -2 -12 3 -15 5 -3 9 1 9 9 0 17 -3 19 -12 6z"/>
<path d="M1081 2047 c-6 -8 -7 -17 -3 -21 4 -4 0 -6 -8 -4 -8 2 -18 7 -21 12
-4 5 -14 -5 -23 -22 -15 -29 -15 -30 5 -25 16 4 18 8 7 14 -9 6 -2 9 19 9 17
0 39 3 49 7 16 6 16 7 -2 14 -17 7 -17 8 -1 8 9 1 17 6 17 11 0 15 -26 12 -39
-3z"/>
<path d="M1141 2041 c-9 -6 -7 -10 8 -14 12 -3 21 -1 21 3 0 14 -15 19 -29 11z"/>
<path d="M891 1984 c0 -11 3 -14 6 -6 3 7 2 16 -1 19 -3 4 -6 -2 -5 -13z"/>
<path d="M946 1691 c-9 -14 4 -41 19 -41 15 0 24 19 18 38 -5 14 -29 16 -37 3z"/>
<path d="M884 1629 c-10 -17 23 -46 37 -32 7 7 9 19 6 27 -7 18 -33 21 -43 5z"/>
<path d="M1003 1624 c-3 -8 -1 -20 6 -27 14 -14 47 15 37 32 -10 16 -36 13
-43 -5z"/>
<path d="M954 1576 c-8 -22 3 -49 19 -43 6 2 12 14 12 27 0 27 -22 39 -31 16z"/>
<path d="M2823 1684 c-8 -21 13 -42 28 -27 13 13 5 43 -11 43 -6 0 -13 -7 -17
-16z"/>
<path d="M2763 1624 c-8 -21 13 -42 28 -27 13 13 5 43 -11 43 -6 0 -13 -7 -17
-16z"/>
<path d="M2883 1624 c-8 -21 13 -42 28 -27 13 13 5 43 -11 43 -6 0 -13 -7 -17
-16z"/>
<path d="M2824 1576 c-8 -22 3 -49 19 -43 6 2 12 14 12 27 0 27 -22 39 -31 16z"/>
<path d="M1631 1471 c-15 -28 -14 -31 14 -31 15 0 25 -6 25 -14 0 -7 9 -16 20
-19 27 -7 25 -35 -2 -39 -16 -2 -22 -9 -20 -20 2 -12 -4 -18 -18 -18 -13 0
-20 7 -20 20 0 13 -7 20 -20 20 -12 0 -20 7 -20 16 0 9 9 18 20 21 32 9 23 25
-12 21 -29 -3 -33 -7 -36 -35 -3 -31 -1 -33 27 -33 26 0 30 -4 33 -32 2 -28 7
-33 28 -33 21 0 26 5 28 33 3 28 7 32 33 32 28 0 30 2 27 33 -2 26 -8 33 -30
35 -21 3 -27 9 -30 30 -4 33 -33 41 -47 13z"/>
<path d="M2071 1477 c-111 -57 -65 -217 63 -217 80 0 135 107 90 175 -31 48
-104 68 -153 42z m85 -11 c15 -12 17 -19 8 -32 -17 -29 -42 -40 -61 -28 -32
20 -40 44 -19 60 11 8 27 14 36 14 9 0 25 -6 36 -14z m-65 -62 c9 -11 10 -20
2 -32 -15 -24 -44 -27 -59 -7 -28 38 27 75 57 39z m123 -7 c9 -15 7 -21 -9
-33 -24 -18 -44 -15 -58 8 -8 12 -7 21 3 33 17 20 49 16 64 -8z m-63 -53 c9
-11 10 -20 2 -32 -15 -24 -44 -27 -59 -7 -28 38 27 75 57 39z"/>
<path d="M1840 1272 c-35 -5 -49 -20 -30 -32 23 -15 124 -12 146 4 18 14 18
15 -6 20 -48 9 -85 12 -110 8z"/>
<path d="M1161 1333 c-1 -6 -4 -20 -7 -30 -5 -17 -5 -17 6 0 6 10 9 23 6 30
-3 9 -5 9 -5 0z"/>
<path d="M1314 1227 c-2 -7 0 -24 5 -38 8 -21 9 -20 8 13 -2 41 -5 46 -13 25z"/>
<path d="M2020 931 c0 -6 4 -13 10 -16 6 -3 7 1 4 9 -7 18 -14 21 -14 7z"/>
<path d="M3133 1293 c-84 -131 -287 -340 -448 -462 -196 -149 -432 -282 -660
-372 l-120 -48 -3 -85 c-2 -57 1 -86 8 -86 28 0 247 90 350 143 391 204 682
494 860 858 39 81 44 101 13 52z"/>
</g>
</svg>
